<svg xmlns="http://www.w3.org/2000/svg" viewBox="0 0 640 392" role="img" aria-labelledby="t d" font-family="Inter, system-ui, sans-serif">
<title id="t">Casa Ribeira (hotel starter): what visitors get</title>
<desc id="d">Decision accuracy (labels scored against the final page) for the rules engine and the Jev pipeline as hand-written heuristics are removed.</desc>
<rect width="640" height="392" fill="#ffffff"/>
<text x="56" y="28" font-size="15" font-weight="600" fill="#18181b">Casa Ribeira (hotel starter): what visitors get</text>
<line x1="56" x2="608" y1="288" y2="288" stroke="#d4d4d8" stroke-width="1"/><text x="48" y="292" text-anchor="end" font-size="12" fill="#52525b">0%</text><line x1="56" x2="608" y1="228" y2="228" stroke="#d4d4d8" stroke-width="1"/><text x="48" y="232" text-anchor="end" font-size="12" fill="#52525b">25%</text><line x1="56" x2="608" y1="168" y2="168" stroke="#d4d4d8" stroke-width="1"/><text x="48" y="172" text-anchor="end" font-size="12" fill="#52525b">50%</text><line x1="56" x2="608" y1="108" y2="108" stroke="#d4d4d8" stroke-width="1"/><text x="48" y="112" text-anchor="end" font-size="12" fill="#52525b">75%</text><line x1="56" x2="608" y1="48" y2="48" stroke="#d4d4d8" stroke-width="1"/><text x="48" y="52" text-anchor="end" font-size="12" fill="#52525b">100%</text><text x="56" y="308" text-anchor="middle" font-size="12" fill="#52525b">100%</text><text x="194" y="308" text-anchor="middle" font-size="12" fill="#52525b">75%</text><text x="332" y="308" text-anchor="middle" font-size="12" fill="#52525b">50%</text><text x="470" y="308" text-anchor="middle" font-size="12" fill="#52525b">25%</text><text x="608" y="308" text-anchor="middle" font-size="12" fill="#52525b">0%</text>
<text x="332" y="326" text-anchor="middle" font-size="12" fill="#52525b">hand-written heuristics kept</text>
<polyline points="56.0,48.0 194.0,51.9 332.0,51.9 470.0,54.7 608.0,107.1" fill="none" stroke="#dc2626" stroke-width="2.5"/><circle cx="56.0" cy="48.0" r="3.5" fill="#dc2626"/><circle cx="194.0" cy="51.9" r="3.5" fill="#dc2626"/><circle cx="332.0" cy="51.9" r="3.5" fill="#dc2626"/><circle cx="470.0" cy="54.7" r="3.5" fill="#dc2626"/><circle cx="608.0" cy="107.1" r="3.5" fill="#dc2626"/><polyline points="56.0,59.0 194.0,57.0 332.0,57.0 470.0,57.0 608.0,59.0" fill="none" stroke="#2563eb" stroke-width="2.5"/><circle cx="56.0" cy="59.0" r="3.5" fill="#2563eb"/><circle cx="194.0" cy="57.0" r="3.5" fill="#2563eb"/><circle cx="332.0" cy="57.0" r="3.5" fill="#2563eb"/><circle cx="470.0" cy="57.0" r="3.5" fill="#2563eb"/><circle cx="608.0" cy="59.0" r="3.5" fill="#2563eb"/><polyline points="56.0,95.0 194.0,98.9 332.0,98.9 470.0,101.6 608.0,135.7" fill="none" stroke="#dc2626" stroke-width="2.5" stroke-dasharray="6 4"/><circle cx="56.0" cy="95.0" r="3.5" fill="#dc2626"/><circle cx="194.0" cy="98.9" r="3.5" fill="#dc2626"/><circle cx="332.0" cy="98.9" r="3.5" fill="#dc2626"/><circle cx="470.0" cy="101.6" r="3.5" fill="#dc2626"/><circle cx="608.0" cy="135.7" r="3.5" fill="#dc2626"/><polyline points="56.0,98.5 194.0,98.5 332.0,98.5 470.0,98.1 608.0,98.9" fill="none" stroke="#2563eb" stroke-width="2.5" stroke-dasharray="6 4"/><circle cx="56.0" cy="98.5" r="3.5" fill="#2563eb"/><circle cx="194.0" cy="98.5" r="3.5" fill="#2563eb"/><circle cx="332.0" cy="98.5" r="3.5" fill="#2563eb"/><circle cx="470.0" cy="98.1" r="3.5" fill="#2563eb"/><circle cx="608.0" cy="98.9" r="3.5" fill="#2563eb"/><line x1="56" x2="78" y1="348" y2="348" stroke="#dc2626" stroke-width="2.5"/><text x="84" y="352" font-size="12" fill="#27272a">rules, heuristics removed</text><line x1="346" x2="368" y1="348" y2="348" stroke="#2563eb" stroke-width="2.5"/><text x="374" y="352" font-size="12" fill="#27272a">Jev, heuristics removed</text><line x1="56" x2="78" y1="366" y2="366" stroke="#dc2626" stroke-width="2.5" stroke-dasharray="6 4"/><text x="84" y="370" font-size="12" fill="#27272a">rules, heuristics and audiences removed</text><line x1="346" x2="368" y1="366" y2="366" stroke="#2563eb" stroke-width="2.5" stroke-dasharray="6 4"/><text x="374" y="370" font-size="12" fill="#27272a">Jev, heuristics and audiences removed</text>
</svg>
